# xmcd
#
# Track frame offsets:
#	150
#	13433
#	22159
#	31034
#	42547
#	56938
#	64341
#	85240
#	99338
#	105472
#	131337
#	139554
#	153502
#	165798
#	178549
#
# Disc length: 2491 seconds
#
# Revision: 3
# Processed by: cddbd v1.5.2PL0 Copyright (c) Steve Scherf et al.
# Submitted via: EasyCDDAExtractor 11.1.0.1
#
DISCID=c109b90f
DTITLE=Blind Willie McTell - The Classic Years (1940)
DYEAR=2003
DGENRE=Blues
TTITLE0=Just As Well Get Ready, You Got To Die - Climbing High Mountains - Tryin
TTITLE0=' To Get Home (1940)
TTITLE1=Monologue On Accidents (1940)
TTITLE2=Boll Weevil (1940)
TTITLE3=Delia (1940)
TTITLE4=Dying Crapshooter's Blues (1940)
TTITLE5=Will Fox (1940)
TTITLE6=I Got To Cross The River Jordan (1940)
TTITLE7=Monologue On Old Songs - Old Time Religion - Amen (1940)
TTITLE8=Amazing Grace (1940)
TTITLE9=Monologues On: The History Of The Blues - Life As Maker Of Records - On 
TTITLE9=Himself (1940)
TTITLE10=King Edward Blues (1940)
TTITLE11=Murderer's Home Blues (1940)
TTITLE12=Kill-It Kid Rag (1940)
TTITLE13=Chainey (1940)
TTITLE14=I Got To Cross The River Of Jordan (1940)
EXTD=YEAR: 2003
EXTT0=
EXTT1=
EXTT2=
EXTT3=
EXTT4=
EXTT5=
EXTT6=
EXTT7=
EXTT8=
EXTT9=
EXTT10=
EXTT11=
EXTT12=
EXTT13=
EXTT14=
PLAYORDER=
